HIERARCHY
ROOT Hips
{
	OFFSET 0.000000 0.000000 0.000000
	CHANNELS 6 Xposition Yposition Zposition Xrotation Yrotation Zrotation
	JOINT LeftUpLeg_virtual
	{
		OFFSET 0.000000 0.000000 0.000000
		CHANNELS 3 Xrotation Yrotation Zrotation
		JOINT LeftUpLeg
		{
			OFFSET 15.427100 -6.655098 0.678600
			CHANNELS 3 Xrotation Yrotation Zrotation
			JOINT LeftLeg
			{
				OFFSET 4.081073 -39.591068 13.024000
				CHANNELS 3 Xrotation Yrotation Zrotation
				JOINT LeftFoot
				{
					OFFSET -4.081074 -37.707932 -15.979700
					CHANNELS 3 Xrotation Yrotation Zrotation
					JOINT LeftToeBase
					{
						OFFSET 5.346399 -15.068900 20.645000
						CHANNELS 3 Xrotation Yrotation Zrotation
						JOINT LeftToe_End
						{
							OFFSET 2.754700 0.931300 11.300900
							CHANNELS 3 Xrotation Yrotation Zrotation
							End Site
							{
								OFFSET 0 0 0
							}
						}
					}
				}
			}
		}
	}
	JOINT RightUpLeg_virtual
	{
		OFFSET 0.000000 0.000000 0.000000
		CHANNELS 3 Xrotation Yrotation Zrotation
		JOINT RightUpLeg
		{
			OFFSET -15.569500 -6.655098 0.678600
			CHANNELS 3 Xrotation Yrotation Zrotation
			JOINT RightLeg
			{
				OFFSET -4.081825 -39.591045 13.023800
				CHANNELS 3 Xrotation Yrotation Zrotation
				JOINT RightFoot
				{
					OFFSET 4.081824 -37.707954 -15.979600
					CHANNELS 3 Xrotation Yrotation Zrotation
					JOINT RightToeBase
					{
						OFFSET -5.346400 -15.068900 20.645000
						CHANNELS 3 Xrotation Yrotation Zrotation
						JOINT RightToe_End
						{
							OFFSET -2.754700 0.931300 11.300900
							CHANNELS 3 Xrotation Yrotation Zrotation
							End Site
							{
								OFFSET 0 0 0
							}
						}
					}
				}
			}
		}
	}
	JOINT Spine_virtual
	{
		OFFSET 0.000000 0.000000 0.000000
		CHANNELS 3 Xrotation Yrotation Zrotation
		JOINT Spine
		{
			OFFSET -0.279200 12.230698 -2.892100
			CHANNELS 3 Xrotation Yrotation Zrotation
			JOINT Spine1
			{
				OFFSET -0.232667 10.192268 -1.242267
				CHANNELS 3 Xrotation Yrotation Zrotation
				JOINT Spine1_split
				{
					OFFSET -0.232667 10.192268 -1.242267
					CHANNELS 3 Xrotation Yrotation Zrotation
					JOINT Spine2
					{
						OFFSET -0.232667 10.192268 -1.242267
						CHANNELS 3 Xrotation Yrotation Zrotation
						JOINT Neck_virtual
						{
							OFFSET 0.000000 0.000000 0.000000
							CHANNELS 3 Xrotation Yrotation Zrotation
							JOINT Neck
							{
								OFFSET -0.418800 17.814194 8.416900
								CHANNELS 3 Xrotation Yrotation Zrotation
								JOINT Head
								{
									OFFSET 0.000000 7.031097 3.806800
									CHANNELS 3 Xrotation Yrotation Zrotation
									JOINT HeadTop_End
									{
										OFFSET 0.000000 24.646606 12.978600
										CHANNELS 3 Xrotation Yrotation Zrotation
										End Site
										{
											OFFSET 0 0 0
										}
									}
								}
							}
						}
						JOINT LeftShoulder_virtual
						{
							OFFSET 0.000000 0.000000 0.000000
							CHANNELS 3 Xrotation Yrotation Zrotation
							JOINT LeftShoulder
							{
								OFFSET 8.476499 7.247704 -3.868750
								CHANNELS 3 Xrotation Yrotation Zrotation
								JOINT LeftShoulder_split
								{
									OFFSET 8.476499 7.247704 -3.868750
									CHANNELS 3 Xrotation Yrotation Zrotation
									JOINT LeftArm
									{
										OFFSET 9.308998 -2.777710 0.208600
										CHANNELS 3 Xrotation Yrotation Zrotation
										JOINT LeftForeArm
										{
											OFFSET 29.972298 0.000000 0.000000
											CHANNELS 3 Xrotation Yrotation Zrotation
											JOINT LeftHand
											{
												OFFSET 26.026505 0.000000 0.000000
												CHANNELS 3 Xrotation Yrotation Zrotation
												End Site
												{
													OFFSET 0 0 0
												}
											}
										}
									}
								}
							}
						}
						JOINT RightShoulder_virtual
						{
							OFFSET 0.000000 0.000000 0.000000
							CHANNELS 3 Xrotation Yrotation Zrotation
							JOINT RightShoulder
							{
								OFFSET -7.570500 7.247704 -3.868750
								CHANNELS 3 Xrotation Yrotation Zrotation
								JOINT RightShoulder_split
								{
									OFFSET -7.570500 7.247704 -3.868750
									CHANNELS 3 Xrotation Yrotation Zrotation
									JOINT RightArm
									{
										OFFSET -9.308998 -2.777710 0.208500
										CHANNELS 3 Xrotation Yrotation Zrotation
										JOINT RightForeArm
										{
											OFFSET -29.972300 0.000000 0.000000
											CHANNELS 3 Xrotation Yrotation Zrotation
											JOINT RightHand
											{
												OFFSET -26.026505 0.000000 0.000000
												CHANNELS 3 Xrotation Yrotation Zrotation
												End Site
												{
													OFFSET 0 0 0
												}
											}
										}
									}
								}
							}
						}
					}
				}
			}
		}
	}
}
MOTION
Frames: 10
Frame Time: 0.03333333
0.963443 86.733871 -1.164421 0.000000 0.000000 0.000000 7.274341 -17.488505 1.357085 -30.476188 6.235279 10.953694 26.507384 5.697801 0.557938 -2.812742 -0.580455 -7.503786 2.070089 -1.520593 -0.729315 0.000000 0.000000 0.000000 8.186346 -18.652311 1.721941 -8.636712 -9.891161 -16.982302 23.079904 -1.689896 4.451943 -18.737161 -6.826316 13.061931 1.328267 1.382386 0.765700 0.000000 0.000000 0.000000 7.843685 -14.311012 1.234592 24.835218 5.116180 -1.113564 2.625424 2.011253 -1.646239 0.591705 1.442006 0.414619 0.000000 0.000000 0.000000 3.807123 1.634996 -0.965818 -14.346841 1.939606 1.702770 -11.618636 10.038505 -2.039795 0.000000 0.000000 0.000000 3.641923 1.991716 -1.112964 6.961581 -21.138741 9.092771 -0.773200 -0.659293 0.808429 -31.538224 -10.831635 -84.852471 -0.278972 -44.504673 -3.110799 0.000000 0.000000 0.000000 4.053551 1.901593 -0.918478 12.126627 25.845412 -20.069944 -5.056114 1.631374 -1.165527 -43.172550 1.278683 85.854788 -0.609873 60.987524 7.610528 0.000000 0.000000 0.000000 
1.004124 86.741333 -1.232006 0.000000 0.000000 0.000000 7.272898 -17.785995 1.411148 -30.503464 6.117990 11.011905 26.641228 5.910152 0.483056 -2.923252 -0.533249 -7.582629 2.174140 -1.516049 -0.745686 0.000000 0.000000 0.000000 8.166563 -18.816278 1.772777 -8.750598 -10.039277 -16.977803 23.093105 -1.631070 4.414667 -18.678556 -6.751221 12.829131 1.525648 1.355684 0.830447 0.000000 0.000000 0.000000 7.780421 -14.603016 1.193464 24.847204 5.077995 -1.057647 2.609982 2.006780 -1.580593 0.564375 1.351589 0.402228 0.000000 0.000000 0.000000 3.834960 1.674978 -0.943966 -14.250929 2.186717 1.600772 -11.713038 10.508174 -2.510562 0.000000 0.000000 0.000000 3.553642 2.005008 -1.080711 6.940217 -20.862270 8.855943 -0.580400 -1.337771 0.943941 -32.049785 -10.999063 -84.638079 -0.660784 -44.688080 -3.373326 0.000000 0.000000 0.000000 4.032913 1.918989 -0.843557 12.012135 25.834214 -19.828234 -5.197215 1.335063 -1.057671 -43.054302 0.493190 86.015209 -1.339935 61.375895 8.204778 0.000000 0.000000 0.000000 
1.078370 86.706055 -1.381214 0.000000 0.000000 0.000000 7.202510 -18.515401 1.475803 -30.528671 6.043082 11.246508 26.910486 6.300548 0.392566 -3.107677 -0.401540 -7.745032 2.285385 -1.499470 -0.778274 0.000000 0.000000 0.000000 8.051726 -19.419648 1.828663 -9.079506 -10.116611 -16.993360 23.208319 -1.287384 4.335372 -18.632742 -6.494447 12.646025 1.562652 1.363657 0.804241 0.000000 0.000000 0.000000 7.641335 -15.344647 1.185860 24.827176 5.046078 -0.920571 2.601853 2.019629 -1.521554 0.546264 1.228036 0.412624 0.000000 0.000000 0.000000 3.883224 1.716419 -0.924841 -14.156258 2.894184 1.265872 -11.858825 11.583164 -3.294736 0.000000 0.000000 0.000000 3.481306 2.053818 -1.041588 6.820291 -20.598105 8.173396 -0.366593 -1.951187 0.869865 -32.243906 -11.859062 -83.442468 -0.617265 -45.074990 -3.303830 0.000000 0.000000 0.000000 4.046403 1.936793 -0.799591 11.684336 25.665445 -19.312978 -5.361397 1.168970 -0.938625 -43.397188 1.130705 85.676950 -1.923987 61.112571 8.551200 0.000000 0.000000 0.000000 
1.189672 86.639984 -1.610115 0.000000 0.000000 0.000000 7.051361 -19.515596 1.549785 -30.553905 6.046003 11.593407 27.234112 6.845940 0.287093 -3.286411 -0.224509 -7.965463 2.374511 -1.471786 -0.811792 0.000000 0.000000 0.000000 7.877602 -20.379391 1.905533 -9.592309 -10.145899 -17.035786 23.451576 -0.677428 4.233637 -18.568878 -6.078306 12.503588 1.472557 1.396265 0.712571 0.000000 0.000000 0.000000 7.415104 -16.455992 1.223966 24.789191 5.015273 -0.733379 2.618675 2.045532 -1.471591 0.495882 1.059018 0.506200 0.000000 0.000000 0.000000 3.924400 1.755793 -0.896132 -14.077686 3.936626 0.732841 -11.985608 13.036582 -4.224819 0.000000 0.000000 0.000000 3.451677 2.117224 -1.010273 6.620764 -20.347702 7.096422 -0.180573 -2.333201 0.637674 -32.055697 -13.325888 -81.441571 -0.278624 -45.456357 -3.049014 0.000000 0.000000 0.000000 4.092355 1.960941 -0.784343 11.200652 25.383886 -18.612223 -5.522364 1.142667 -0.743781 -44.164024 3.173639 84.976002 -2.329411 60.296890 8.665825 0.000000 0.000000 0.000000 
1.324918 86.552414 -1.903664 0.000000 0.000000 0.000000 6.845896 -20.664085 1.642769 -30.540621 6.123953 11.991901 27.533252 7.511203 0.175663 -3.399950 -0.048749 -8.205735 2.443722 -1.435700 -0.829016 0.000000 0.000000 0.000000 7.658845 -21.577184 2.014923 -10.231769 -10.165581 -17.086038 23.773993 0.126788 4.097660 -18.479485 -5.580918 12.325786 1.334727 1.438958 0.586071 0.000000 0.000000 0.000000 7.135821 -17.805359 1.298876 24.757216 4.972233 -0.540898 2.668306 2.077066 -1.430102 0.606366 0.887372 0.590596 0.000000 0.000000 0.000000 3.941903 1.790235 -0.858841 -14.047823 5.168031 0.040483 -12.077838 14.451384 -5.077704 0.000000 0.000000 0.000000 3.450593 2.179723 -0.994851 6.359267 -20.115583 5.751981 -0.130021 -2.383665 0.468524 -31.465654 -15.315900 -78.846174 0.117262 -45.899209 -2.808858 0.000000 0.000000 0.000000 4.148956 1.994732 -0.792467 10.638613 25.054438 -17.836774 -5.626735 1.050717 -0.531162 -45.168806 6.264034 84.034918 -2.627016 59.135839 8.662241 0.000000 0.000000 0.000000 
1.450199 86.452042 -2.234142 0.000000 0.000000 0.000000 6.620497 -21.852714 1.764218 -30.460878 6.234726 12.391687 27.732882 8.245163 0.082371 -3.415105 0.079157 -8.436072 2.494997 -1.392085 -0.818332 0.000000 0.000000 0.000000 7.428698 -22.844263 2.165229 -10.972796 -10.198941 -17.116536 24.158917 1.034300 3.927862 -18.391681 -5.092247 12.024610 1.230546 1.480333 0.454103 0.000000 0.000000 0.000000 6.839658 -19.224237 1.391755 24.744206 4.897935 -0.381610 2.732704 2.107230 -1.396284 0.654226 0.615717 0.602217 0.000000 0.000000 0.000000 3.934662 1.809812 -0.818581 -14.110094 6.384571 -0.748372 -12.185528 15.327305 -5.617676 0.000000 0.000000 0.000000 3.459847 2.223653 -1.002246 6.067082 -19.872919 4.304349 -0.084307 -2.103792 0.349868 -30.591079 -17.581894 -75.927354 0.374827 -46.560156 -2.756197 0.000000 0.000000 0.000000 4.205566 2.032250 -0.814464 10.069279 24.759063 -17.109586 -5.566773 0.917557 -0.250690 -46.165467 9.857560 82.918920 -2.844474 57.842645 8.667749 0.000000 0.000000 0.000000 
1.555261 86.361420 -2.573944 0.000000 0.000000 0.000000 6.401611 -23.068146 1.911121 -30.282385 6.326795 12.784531 27.787100 8.985931 0.036134 -3.312106 0.128036 -8.679471 2.552654 -1.343016 -0.787227 0.000000 0.000000 0.000000 7.202035 -24.131412 2.342994 -11.783967 -10.255856 -17.104745 24.584801 1.978330 3.737071 -18.303213 -4.664538 11.545262 1.164975 1.518984 0.341264 0.000000 0.000000 0.000000 6.517447 -20.660446 1.488405 24.751812 4.787339 -0.271429 2.786072 2.118888 -1.373243 0.626682 0.427252 0.577518 0.000000 0.000000 0.000000 3.918395 1.815654 -0.782279 -14.264884 7.412979 -1.566415 -12.448931 15.188917 -5.625592 0.000000 0.000000 0.000000 3.441958 2.245213 -1.035892 5.765111 -19.572232 2.860385 0.030526 -1.742762 0.173862 -29.516041 -19.941400 -72.980059 0.463075 -47.498512 -2.958661 0.000000 0.000000 0.000000 4.220435 2.055342 -0.837426 9.554904 24.604196 -16.467239 -5.244866 0.845578 0.036662 -46.922201 13.407939 81.692245 -3.039698 56.572019 8.815589 0.000000 0.000000 0.000000 
1.653108 86.298531 -2.931442 0.000000 0.000000 0.000000 6.205319 -24.317282 2.059819 -29.987051 6.369137 13.203487 27.671347 9.705866 0.029579 -3.110270 0.089820 -8.956689 2.639091 -1.293677 -0.735268 0.000000 0.000000 0.000000 6.983138 -25.367326 2.507450 -12.615549 -10.335006 -17.009331 25.038512 2.924972 3.528330 -18.196198 -4.323006 10.904694 1.160883 1.556295 0.258577 0.000000 0.000000 0.000000 6.204194 -22.025588 1.559703 24.767688 4.647093 -0.204842 2.808146 2.100223 -1.364304 0.499859 0.271260 0.612044 0.000000 0.000000 0.000000 3.903330 1.796439 -0.763612 -14.524119 8.097656 -2.402026 -12.991615 13.658673 -4.982331 0.000000 0.000000 0.000000 3.359567 2.236871 -1.090715 5.456231 -19.241326 1.517423 0.121567 -1.498976 0.049872 -28.147735 -22.273957 -70.183923 0.446991 -48.656782 -3.354271 0.000000 0.000000 0.000000 4.152659 2.045801 -0.852385 9.156254 24.696460 -15.940237 -4.781681 0.800268 0.270031 -47.301813 16.497707 80.290615 -3.270209 55.527051 9.227577 0.000000 0.000000 0.000000 
1.737745 86.276321 -3.326302 0.000000 0.000000 0.000000 6.028763 -25.594488 2.178863 -29.605626 6.369069 13.696553 27.405941 10.398944 0.038160 -2.869276 -0.023981 -9.252377 2.721158 -1.247091 -0.671214 0.000000 0.000000 0.000000 6.771593 -26.523848 2.621583 -13.426451 -10.384406 -16.786052 25.539211 3.871988 3.320517 -18.030871 -4.053205 10.153542 1.292136 1.597246 0.206228 0.000000 0.000000 0.000000 5.909470 -23.284390 1.580267 24.769872 4.484851 -0.157055 2.790643 2.038861 -1.367504 0.308882 0.082954 0.633985 0.000000 0.000000 0.000000 3.895005 1.743460 -0.767974 -14.852417 8.332067 -3.257604 -13.818576 10.476502 -3.694196 0.000000 0.000000 0.000000 3.245746 2.191426 -1.159777 5.167307 -18.958657 0.359768 0.067641 -1.293897 -0.043360 -26.547523 -24.476326 -67.623586 0.453044 -49.710899 -3.774637 0.000000 0.000000 0.000000 4.029324 1.994656 -0.863856 8.911134 25.100194 -15.573393 -4.309376 0.766523 0.416316 -47.333662 18.991939 78.637122 -3.552675 54.774429 9.935973 0.000000 0.000000 0.000000 
1.796502 86.283005 -3.771515 0.000000 0.000000 0.000000 5.835937 -26.892333 2.233876 -29.158839 6.365755 14.321959 27.044906 11.080529 0.029803 -2.642230 -0.178440 -9.565953 2.804002 -1.202939 -0.617906 0.000000 0.000000 0.000000 6.552577 -27.647381 2.663064 -14.200008 -10.352570 -16.410974 26.075415 4.822066 3.108665 -17.756007 -3.833751 9.377226 1.491270 1.644073 0.173430 0.000000 0.000000 0.000000 5.630708 -24.460885 1.538143 24.737646 4.311466 -0.102828 2.750179 1.933885 -1.382850 0.208104 -0.105602 0.630353 0.000000 0.000000 0.000000 3.894901 1.667829 -0.790397 -15.169285 8.071986 -4.152711 -14.813681 5.557212 -1.899443 0.000000 0.000000 0.000000 3.156709 2.108108 -1.231983 4.927400 -18.822292 -0.594750 -0.130186 -1.020642 -0.191659 -24.796988 -26.405440 -65.329755 0.533656 -50.222132 -4.032760 0.000000 0.000000 0.000000 3.898794 1.907551 -0.872364 8.855456 25.858067 -15.407402 -3.894017 0.713645 0.501243 -47.132103 20.934789 76.747250 -3.875116 54.296753 10.875589 0.000000 0.000000 0.000000 
